G04 #@! TF.GenerationSoftware,KiCad,Pcbnew,(5.1.5)-3*
G04 #@! TF.CreationDate,2020-04-29T22:23:23+10:00*
G04 #@! TF.ProjectId,rei_pcb,7265695f-7063-4622-9e6b-696361645f70,rev?*
G04 #@! TF.SameCoordinates,Original*
G04 #@! TF.FileFunction,Copper,L1,Top*
G04 #@! TF.FilePolarity,Positive*
%FSLAX46Y46*%
G04 Gerber Fmt 4.6, Leading zero omitted, Abs format (unit mm)*
G04 Created by KiCad (PCBNEW (5.1.5)-3) date 2020-04-29 22:23:23*
%MOMM*%
%LPD*%
G04 APERTURE LIST*
%ADD10C,2.250000*%
%ADD11R,1.905000X1.905000*%
%ADD12C,1.905000*%
%ADD13C,0.600000*%
%ADD14C,0.381000*%
%ADD15C,0.254000*%
G04 APERTURE END LIST*
D10*
X71596250Y-93345000D03*
X65246250Y-95885000D03*
X66833750Y-74295000D03*
X60483750Y-76835000D03*
X112077500Y-112395000D03*
X105727500Y-114935000D03*
X102552500Y-93345000D03*
X96202500Y-95885000D03*
X350202500Y-112395000D03*
X343852500Y-114935000D03*
X321627500Y-55245000D03*
X315277500Y-57785000D03*
D11*
X310673750Y-84455000D03*
D12*
X313213750Y-84455000D03*
D10*
X308133750Y-76835000D03*
X314483750Y-74295000D03*
D11*
X38417500Y-109220000D03*
D12*
X38417500Y-106680000D03*
D10*
X30797500Y-111760000D03*
X28257500Y-105410000D03*
D11*
X38417500Y-71120000D03*
D12*
X38417500Y-68580000D03*
D10*
X30797500Y-73660000D03*
X28257500Y-67310000D03*
X64452500Y-55245000D03*
X58102500Y-57785000D03*
D11*
X342582500Y-106680000D03*
D12*
X342582500Y-109220000D03*
D10*
X350202500Y-104140000D03*
X352742500Y-110490000D03*
X350202500Y-93345000D03*
X343852500Y-95885000D03*
X350202500Y-74295000D03*
X343852500Y-76835000D03*
D11*
X342582500Y-68580000D03*
D12*
X342582500Y-71120000D03*
D10*
X350202500Y-66040000D03*
X352742500Y-72390000D03*
X350202500Y-55245000D03*
X343852500Y-57785000D03*
X350202500Y-36195000D03*
X343852500Y-38735000D03*
X326390000Y-36195000D03*
X320040000Y-38735000D03*
X316865000Y-36195000D03*
X310515000Y-38735000D03*
X307340000Y-36195000D03*
X300990000Y-38735000D03*
X326390000Y-93345000D03*
X320040000Y-95885000D03*
X297815000Y-55245000D03*
X291465000Y-57785000D03*
X288290000Y-36195000D03*
X281940000Y-38735000D03*
X321627500Y-112395000D03*
X315277500Y-114935000D03*
X304958750Y-93345000D03*
X298608750Y-95885000D03*
X300196250Y-93345000D03*
X293846250Y-95885000D03*
X283527500Y-74295000D03*
X277177500Y-76835000D03*
X278765000Y-55245000D03*
X272415000Y-57785000D03*
X269240000Y-36195000D03*
X262890000Y-38735000D03*
X274002500Y-93345000D03*
X267652500Y-95885000D03*
X264477500Y-74295000D03*
X258127500Y-76835000D03*
X259715000Y-55245000D03*
X253365000Y-57785000D03*
X250190000Y-36195000D03*
X243840000Y-38735000D03*
X274002500Y-112395000D03*
X267652500Y-114935000D03*
X254952500Y-93345000D03*
X248602500Y-95885000D03*
X245427500Y-74295000D03*
X239077500Y-76835000D03*
X240665000Y-55245000D03*
X234315000Y-57785000D03*
X231140000Y-36195000D03*
X224790000Y-38735000D03*
X235902500Y-93345000D03*
X229552500Y-95885000D03*
X226377500Y-74295000D03*
X220027500Y-76835000D03*
X221615000Y-55245000D03*
X215265000Y-57785000D03*
X212090000Y-36195000D03*
X205740000Y-38735000D03*
X216852500Y-93345000D03*
X210502500Y-95885000D03*
X207327500Y-74295000D03*
X200977500Y-76835000D03*
X202565000Y-55245000D03*
X196215000Y-57785000D03*
X193040000Y-36195000D03*
X186690000Y-38735000D03*
X193040000Y-112395000D03*
X186690000Y-114935000D03*
X197802500Y-93345000D03*
X191452500Y-95885000D03*
X188277500Y-74295000D03*
X181927500Y-76835000D03*
X183515000Y-55245000D03*
X177165000Y-57785000D03*
X173990000Y-36195000D03*
X167640000Y-38735000D03*
X178752500Y-93345000D03*
X172402500Y-95885000D03*
X169227500Y-74295000D03*
X162877500Y-76835000D03*
X164465000Y-55245000D03*
X158115000Y-57785000D03*
X154940000Y-36195000D03*
X148590000Y-38735000D03*
X159702500Y-93345000D03*
X153352500Y-95885000D03*
X150177500Y-74295000D03*
X143827500Y-76835000D03*
X145415000Y-55245000D03*
X139065000Y-57785000D03*
X135890000Y-36195000D03*
X129540000Y-38735000D03*
X140652500Y-93345000D03*
X134302500Y-95885000D03*
X131127500Y-74295000D03*
X124777500Y-76835000D03*
X126365000Y-55245000D03*
X120015000Y-57785000D03*
X116840000Y-36195000D03*
X110490000Y-38735000D03*
X121602500Y-93345000D03*
X115252500Y-95885000D03*
X112077500Y-74295000D03*
X105727500Y-76835000D03*
X107315000Y-55245000D03*
X100965000Y-57785000D03*
X97790000Y-36195000D03*
X91440000Y-38735000D03*
X93027500Y-74295000D03*
X86677500Y-76835000D03*
X88265000Y-55245000D03*
X81915000Y-57785000D03*
X78740000Y-36195000D03*
X72390000Y-38735000D03*
X64452500Y-112395000D03*
X58102500Y-114935000D03*
X62071250Y-74295000D03*
X55721250Y-76835000D03*
X59690000Y-36195000D03*
X53340000Y-38735000D03*
X35877500Y-112395000D03*
X29527500Y-114935000D03*
X35877500Y-93345000D03*
X29527500Y-95885000D03*
X35877500Y-74295000D03*
X29527500Y-76835000D03*
X35877500Y-55245000D03*
X29527500Y-57785000D03*
X35877500Y-36195000D03*
X29527500Y-38735000D03*
D13*
X45027582Y-98609418D03*
X45291375Y-101552375D03*
X49552794Y-93830206D03*
X56642000Y-101346000D03*
X49258190Y-105427810D03*
X45466000Y-91948000D03*
X47572105Y-95929288D03*
X43210200Y-91122883D03*
X41656000Y-68326000D03*
X43723850Y-79085150D03*
X52162099Y-81695901D03*
X44196000Y-97790000D03*
X44887907Y-97098093D03*
X42418000Y-91186000D03*
X39370000Y-76200000D03*
X44471956Y-105537000D03*
X44171957Y-112800043D03*
X67310000Y-44450000D03*
X75438000Y-83693000D03*
X72517000Y-101600000D03*
X61341000Y-112776000D03*
X42926000Y-107188000D03*
X85471000Y-85364610D03*
X104902000Y-84932800D03*
X123698000Y-84328000D03*
X153416000Y-102912879D03*
X172466000Y-103344689D03*
X191389000Y-103776499D03*
X210807299Y-104381299D03*
X229476299Y-104914701D03*
X253746000Y-105537000D03*
X267619199Y-106141801D03*
X275844000Y-106746602D03*
X319998829Y-109224819D03*
X333720981Y-108620019D03*
X45054800Y-81661000D03*
X45720000Y-82550000D03*
D14*
X45027582Y-98355418D02*
X45027582Y-98609418D01*
X49552794Y-93830206D02*
X47752000Y-95631000D01*
X45027582Y-101288582D02*
X45291375Y-101552375D01*
X45027582Y-98609418D02*
X45027582Y-101288582D01*
X45291375Y-101552375D02*
X49276000Y-105537000D01*
X49276000Y-105537000D02*
X49784000Y-106045000D01*
X49784000Y-106045000D02*
X49911000Y-106172000D01*
X49911000Y-106172000D02*
X51816000Y-106172000D01*
X51816000Y-106172000D02*
X56642000Y-101346000D01*
X56642000Y-101346000D02*
X56642000Y-101346000D01*
X47752000Y-95631000D02*
X47561500Y-95821500D01*
X47561500Y-95821500D02*
X45027582Y-98355418D01*
D15*
X47561500Y-95821500D02*
X45466000Y-93726000D01*
X45466000Y-93726000D02*
X45466000Y-91948000D01*
X38989000Y-86477419D02*
X38989000Y-80549606D01*
X43210200Y-91122883D02*
X43210200Y-90698619D01*
X38989000Y-80549606D02*
X41656000Y-77882606D01*
X43210200Y-90698619D02*
X38989000Y-86477419D01*
X41656000Y-77882606D02*
X41656000Y-68326000D01*
X41656000Y-68326000D02*
X41656000Y-68326000D01*
X46334601Y-81695901D02*
X52162099Y-81695901D01*
X43723850Y-79085150D02*
X46334601Y-81695901D01*
X29527500Y-40325990D02*
X29527500Y-57785000D01*
X29527500Y-38735000D02*
X29527500Y-40325990D01*
X30797500Y-72069010D02*
X30797500Y-73660000D01*
X30797500Y-60645990D02*
X30797500Y-72069010D01*
X29527500Y-59375990D02*
X30797500Y-60645990D01*
X29527500Y-57785000D02*
X29527500Y-59375990D01*
X30797500Y-75565000D02*
X29527500Y-76835000D01*
X30797500Y-73660000D02*
X30797500Y-75565000D01*
X29527500Y-78425990D02*
X29527500Y-95885000D01*
X29527500Y-76835000D02*
X29527500Y-78425990D01*
X30797500Y-110169010D02*
X30797500Y-111760000D01*
X29527500Y-97475990D02*
X30797500Y-98745990D01*
X29527500Y-95885000D02*
X29527500Y-97475990D01*
X30797500Y-113665000D02*
X29527500Y-114935000D01*
X30797500Y-111760000D02*
X30797500Y-113665000D01*
X53340000Y-53022500D02*
X58102500Y-57785000D01*
X53340000Y-38735000D02*
X53340000Y-53022500D01*
X58102500Y-74453750D02*
X60483750Y-76835000D01*
X58102500Y-57785000D02*
X58102500Y-74453750D01*
X58892760Y-76835000D02*
X55721250Y-76835000D01*
X60483750Y-76835000D02*
X58892760Y-76835000D01*
X65246250Y-88492078D02*
X65246250Y-95885000D01*
X55721250Y-76835000D02*
X55721250Y-78967078D01*
X55721250Y-78967078D02*
X65246250Y-88492078D01*
X72390000Y-48260000D02*
X81915000Y-57785000D01*
X72390000Y-38735000D02*
X72390000Y-48260000D01*
X81915000Y-72072500D02*
X86677500Y-76835000D01*
X81915000Y-57785000D02*
X81915000Y-72072500D01*
X86677500Y-86360000D02*
X96202500Y-95885000D01*
X86677500Y-76835000D02*
X86677500Y-86360000D01*
X91440000Y-48260000D02*
X100965000Y-57785000D01*
X91440000Y-38735000D02*
X91440000Y-48260000D01*
X100965000Y-72072500D02*
X105727500Y-76835000D01*
X100965000Y-57785000D02*
X100965000Y-72072500D01*
X105727500Y-86360000D02*
X115252500Y-95885000D01*
X115252500Y-105410000D02*
X105727500Y-114935000D01*
X115252500Y-95885000D02*
X115252500Y-105410000D01*
X110490000Y-48260000D02*
X120015000Y-57785000D01*
X110490000Y-38735000D02*
X110490000Y-48260000D01*
X120015000Y-72072500D02*
X124777500Y-76835000D01*
X120015000Y-57785000D02*
X120015000Y-72072500D01*
X124777500Y-86360000D02*
X134302500Y-95885000D01*
X129540000Y-48260000D02*
X139065000Y-57785000D01*
X129540000Y-38735000D02*
X129540000Y-48260000D01*
X139065000Y-72072500D02*
X143827500Y-76835000D01*
X139065000Y-57785000D02*
X139065000Y-72072500D01*
X143827500Y-86360000D02*
X153352500Y-95885000D01*
X143827500Y-76835000D02*
X143827500Y-86360000D01*
X148590000Y-48260000D02*
X158115000Y-57785000D01*
X148590000Y-38735000D02*
X148590000Y-48260000D01*
X158115000Y-72072500D02*
X162877500Y-76835000D01*
X158115000Y-57785000D02*
X158115000Y-72072500D01*
X162877500Y-86360000D02*
X172402500Y-95885000D01*
X162877500Y-76835000D02*
X162877500Y-86360000D01*
X167640000Y-48260000D02*
X177165000Y-57785000D01*
X167640000Y-38735000D02*
X167640000Y-48260000D01*
X177165000Y-72072500D02*
X181927500Y-76835000D01*
X177165000Y-57785000D02*
X177165000Y-72072500D01*
X181927500Y-86360000D02*
X191452500Y-95885000D01*
X181927500Y-76835000D02*
X181927500Y-86360000D01*
X191452500Y-110172500D02*
X186690000Y-114935000D01*
X191452500Y-95885000D02*
X191452500Y-110172500D01*
X186690000Y-48260000D02*
X196215000Y-57785000D01*
X186690000Y-38735000D02*
X186690000Y-48260000D01*
X196215000Y-72072500D02*
X200977500Y-76835000D01*
X196215000Y-57785000D02*
X196215000Y-72072500D01*
X200977500Y-86360000D02*
X210502500Y-95885000D01*
X200977500Y-76835000D02*
X200977500Y-86360000D01*
X205740000Y-48260000D02*
X215265000Y-57785000D01*
X205740000Y-38735000D02*
X205740000Y-48260000D01*
X215265000Y-72072500D02*
X220027500Y-76835000D01*
X215265000Y-57785000D02*
X215265000Y-72072500D01*
X220027500Y-86360000D02*
X229552500Y-95885000D01*
X220027500Y-76835000D02*
X220027500Y-86360000D01*
X224790000Y-48260000D02*
X234315000Y-57785000D01*
X224790000Y-38735000D02*
X224790000Y-48260000D01*
X234315000Y-72072500D02*
X239077500Y-76835000D01*
X234315000Y-57785000D02*
X234315000Y-72072500D01*
X239077500Y-86360000D02*
X248602500Y-95885000D01*
X239077500Y-76835000D02*
X239077500Y-86360000D01*
X248602500Y-95885000D02*
X248602500Y-100393500D01*
X263144000Y-114935000D02*
X267652500Y-114935000D01*
X248602500Y-100393500D02*
X253746000Y-105537000D01*
X243840000Y-48260000D02*
X253365000Y-57785000D01*
X243840000Y-38735000D02*
X243840000Y-48260000D01*
X254489999Y-73197499D02*
X257002501Y-75710001D01*
X257002501Y-75710001D02*
X258127500Y-76835000D01*
X254489999Y-58909999D02*
X254489999Y-73197499D01*
X253365000Y-57785000D02*
X254489999Y-58909999D01*
X258127500Y-86360000D02*
X267652500Y-95885000D01*
X258127500Y-76835000D02*
X258127500Y-86360000D01*
X262890000Y-48260000D02*
X272415000Y-57785000D01*
X262890000Y-38735000D02*
X262890000Y-48260000D01*
X272415000Y-72072500D02*
X277177500Y-76835000D01*
X272415000Y-57785000D02*
X272415000Y-72072500D01*
X292218018Y-95885000D02*
X292255260Y-95885000D01*
X292255260Y-95885000D02*
X293846250Y-95885000D01*
X295437240Y-95885000D02*
X298608750Y-95885000D01*
X293846250Y-95885000D02*
X295437240Y-95885000D01*
X305943000Y-105600500D02*
X315277500Y-114935000D01*
X277177500Y-76835000D02*
X277177500Y-86296500D01*
X286766000Y-95885000D02*
X293846250Y-95885000D01*
X298608750Y-95885000D02*
X305308000Y-95885000D01*
X305308000Y-95885000D02*
X305943000Y-96520000D01*
X281940000Y-48260000D02*
X291465000Y-57785000D01*
X281940000Y-38735000D02*
X281940000Y-48260000D01*
X291465000Y-57785000D02*
X291465000Y-69977000D01*
X298323000Y-76835000D02*
X308133750Y-76835000D01*
X291465000Y-69977000D02*
X298323000Y-76835000D01*
X308133750Y-84408602D02*
X312879148Y-89154000D01*
X308133750Y-76835000D02*
X308133750Y-84408602D01*
X312879148Y-89154000D02*
X320040000Y-89154000D01*
X320040000Y-89154000D02*
X320040000Y-95885000D01*
X300990000Y-38735000D02*
X310515000Y-38735000D01*
X318449010Y-38735000D02*
X310515000Y-38735000D01*
X320040000Y-38735000D02*
X318449010Y-38735000D01*
X300990000Y-43497500D02*
X315277500Y-57785000D01*
X300990000Y-38735000D02*
X300990000Y-43497500D01*
X343852500Y-40325990D02*
X343852500Y-57785000D01*
X343852500Y-38735000D02*
X343852500Y-40325990D01*
X343852500Y-57785000D02*
X343852500Y-64071500D01*
X343852500Y-64071500D02*
X345821000Y-66040000D01*
X345821000Y-66040000D02*
X350202500Y-66040000D01*
X344977499Y-75710001D02*
X343852500Y-76835000D01*
X345103537Y-75710001D02*
X344977499Y-75710001D01*
X350202500Y-70611038D02*
X345103537Y-75710001D01*
X350202500Y-66040000D02*
X350202500Y-70611038D01*
X343852500Y-76835000D02*
X343852500Y-95885000D01*
X343852500Y-95885000D02*
X343852500Y-102806500D01*
X343852500Y-102806500D02*
X345186000Y-104140000D01*
X345186000Y-104140000D02*
X350202500Y-104140000D01*
X344977499Y-113810001D02*
X343852500Y-114935000D01*
X345103537Y-113810001D02*
X344977499Y-113810001D01*
X350202500Y-108711038D02*
X345103537Y-113810001D01*
X350202500Y-104140000D02*
X350202500Y-108711038D01*
X44196000Y-97790000D02*
X44196000Y-82677000D01*
X44861199Y-96647121D02*
X44887907Y-96673829D01*
X44887907Y-96673829D02*
X44887907Y-97098093D01*
X44861199Y-83662801D02*
X44861199Y-96647121D01*
X37237699Y-86005699D02*
X37237699Y-78332301D01*
X42418000Y-91186000D02*
X37237699Y-86005699D01*
X37237699Y-78332301D02*
X39370000Y-76200000D01*
X44171957Y-105836999D02*
X44171957Y-112800043D01*
X44471956Y-105537000D02*
X44171957Y-105836999D01*
X44171957Y-112800043D02*
X44171957Y-112878957D01*
X67310000Y-48260000D02*
X67310000Y-44450000D01*
X75438000Y-83312000D02*
X75438000Y-56388000D01*
X75438000Y-56388000D02*
X67310000Y-48260000D01*
X75438000Y-83312000D02*
X75438000Y-83693000D01*
X72217001Y-101899999D02*
X72517000Y-101600000D01*
X61341000Y-112776000D02*
X72217001Y-101899999D01*
X42926000Y-107188000D02*
X41160699Y-105422699D01*
X30797500Y-98745990D02*
X30861000Y-105537000D01*
X30975301Y-105422699D02*
X30861000Y-105537000D01*
X41160699Y-105422699D02*
X30975301Y-105422699D01*
X30861000Y-105537000D02*
X30797500Y-110169010D01*
X65246250Y-99091750D02*
X65246250Y-95885000D01*
X59227499Y-113810001D02*
X59227499Y-108666501D01*
X58102500Y-114935000D02*
X59227499Y-113810001D01*
X59227499Y-108666501D02*
X60452000Y-107442000D01*
X60452000Y-107442000D02*
X60452000Y-103886000D01*
X60452000Y-103886000D02*
X65246250Y-99091750D01*
X86677500Y-86360000D02*
X86614000Y-86360000D01*
X86614000Y-86360000D02*
X85471000Y-85217000D01*
X85471000Y-85217000D02*
X85471000Y-85364610D01*
X105727500Y-76835000D02*
X105664000Y-86360000D01*
X104902000Y-85598000D02*
X105664000Y-86360000D01*
X104902000Y-84932800D02*
X104902000Y-85598000D01*
X105664000Y-86360000D02*
X105727500Y-86360000D01*
X123997999Y-85516999D02*
X124714000Y-86233000D01*
X123997999Y-84627999D02*
X123997999Y-85516999D01*
X123698000Y-84328000D02*
X123997999Y-84627999D01*
X124777500Y-76835000D02*
X124714000Y-86233000D01*
X124714000Y-86233000D02*
X124777500Y-86360000D01*
X153416000Y-95948500D02*
X153352500Y-95885000D01*
X153416000Y-102912879D02*
X153416000Y-95948500D01*
X172466000Y-95948500D02*
X172402500Y-95885000D01*
X172466000Y-103344689D02*
X172466000Y-95948500D01*
X210807299Y-96189799D02*
X210502500Y-95885000D01*
X210807299Y-104381299D02*
X210807299Y-96189799D01*
X229476299Y-95961201D02*
X229552500Y-95885000D01*
X229476299Y-104914701D02*
X229476299Y-95961201D01*
X253746000Y-105537000D02*
X263144000Y-114935000D01*
X267619199Y-95918301D02*
X267652500Y-95885000D01*
X267619199Y-106141801D02*
X267619199Y-95918301D01*
X305943000Y-96520000D02*
X305943000Y-105600500D01*
X277177500Y-86296500D02*
X286766000Y-95885000D01*
X286766000Y-95885000D02*
X283718000Y-98933000D01*
X283718000Y-98933000D02*
X276412398Y-106238602D01*
X276412398Y-106238602D02*
X275844000Y-106807000D01*
X320040000Y-109224820D02*
X320040000Y-95885000D01*
X315277500Y-64071500D02*
X315277500Y-57785000D01*
X328009394Y-65913000D02*
X317119000Y-65913000D01*
X317119000Y-65913000D02*
X315277500Y-64071500D01*
X333720981Y-108620019D02*
X333720981Y-71624587D01*
X333720981Y-71624587D02*
X328009394Y-65913000D01*
X44196000Y-82677000D02*
X44196000Y-82423000D01*
X44196000Y-82423000D02*
X44958000Y-81661000D01*
X44958000Y-81661000D02*
X45054800Y-81661000D01*
X44861199Y-83662801D02*
X44861199Y-83408801D01*
X44861199Y-83408801D02*
X45720000Y-82550000D01*
M02*
