G04 #@! TF.GenerationSoftware,KiCad,Pcbnew,(5.1.5)-3*
G04 #@! TF.CreationDate,2020-04-29T22:23:23+10:00*
G04 #@! TF.ProjectId,rei_pcb,7265695f-7063-4622-9e6b-696361645f70,rev?*
G04 #@! TF.SameCoordinates,Original*
G04 #@! TF.FileFunction,Legend,Top*
G04 #@! TF.FilePolarity,Positive*
%FSLAX46Y46*%
G04 Gerber Fmt 4.6, Leading zero omitted, Abs format (unit mm)*
G04 Created by KiCad (PCBNEW (5.1.5)-3) date 2020-04-29 22:23:23*
%MOMM*%
%LPD*%
G04 APERTURE LIST*
%ADD10C,0.150000*%
%ADD11C,0.120000*%
G04 APERTURE END LIST*
D10*
X185833333Y-24376130D02*
X186452380Y-24376130D01*
X186119047Y-24757083D01*
X186261904Y-24757083D01*
X186357142Y-24804702D01*
X186404761Y-24852321D01*
X186452380Y-24947559D01*
X186452380Y-25185654D01*
X186404761Y-25280892D01*
X186357142Y-25328511D01*
X186261904Y-25376130D01*
X185976190Y-25376130D01*
X185880952Y-25328511D01*
X185833333Y-25280892D01*
X186785714Y-24376130D02*
X187404761Y-24376130D01*
X187071428Y-24757083D01*
X187214285Y-24757083D01*
X187309523Y-24804702D01*
X187357142Y-24852321D01*
X187404761Y-24947559D01*
X187404761Y-25185654D01*
X187357142Y-25280892D01*
X187309523Y-25328511D01*
X187214285Y-25376130D01*
X186928571Y-25376130D01*
X186833333Y-25328511D01*
X186785714Y-25280892D01*
X187738095Y-24376130D02*
X188357142Y-24376130D01*
X188023809Y-24757083D01*
X188166666Y-24757083D01*
X188261904Y-24804702D01*
X188309523Y-24852321D01*
X188357142Y-24947559D01*
X188357142Y-25185654D01*
X188309523Y-25280892D01*
X188261904Y-25328511D01*
X188166666Y-25376130D01*
X187880952Y-25376130D01*
X187785714Y-25328511D01*
X187738095Y-25280892D01*
X188785714Y-25280892D02*
X188833333Y-25328511D01*
X188785714Y-25376130D01*
X188738095Y-25328511D01*
X188785714Y-25280892D01*
X188785714Y-25376130D01*
X189166666Y-24376130D02*
X189785714Y-24376130D01*
X189452380Y-24757083D01*
X189595238Y-24757083D01*
X189690476Y-24804702D01*
X189738095Y-24852321D01*
X189785714Y-24947559D01*
X189785714Y-25185654D01*
X189738095Y-25280892D01*
X189690476Y-25328511D01*
X189595238Y-25376130D01*
X189309523Y-25376130D01*
X189214285Y-25328511D01*
X189166666Y-25280892D01*
X190119047Y-24376130D02*
X190785714Y-24376130D01*
X190357142Y-25376130D01*
X191642857Y-24376130D02*
X191166666Y-24376130D01*
X191119047Y-24852321D01*
X191166666Y-24804702D01*
X191261904Y-24757083D01*
X191500000Y-24757083D01*
X191595238Y-24804702D01*
X191642857Y-24852321D01*
X191690476Y-24947559D01*
X191690476Y-25185654D01*
X191642857Y-25280892D01*
X191595238Y-25328511D01*
X191500000Y-25376130D01*
X191261904Y-25376130D01*
X191166666Y-25328511D01*
X191119047Y-25280892D01*
X192880952Y-25376130D02*
X192880952Y-24709464D01*
X192880952Y-24804702D02*
X192928571Y-24757083D01*
X193023809Y-24709464D01*
X193166666Y-24709464D01*
X193261904Y-24757083D01*
X193309523Y-24852321D01*
X193309523Y-25376130D01*
X193309523Y-24852321D02*
X193357142Y-24757083D01*
X193452380Y-24709464D01*
X193595238Y-24709464D01*
X193690476Y-24757083D01*
X193738095Y-24852321D01*
X193738095Y-25376130D01*
X194214285Y-25376130D02*
X194214285Y-24709464D01*
X194214285Y-24804702D02*
X194261904Y-24757083D01*
X194357142Y-24709464D01*
X194500000Y-24709464D01*
X194595238Y-24757083D01*
X194642857Y-24852321D01*
X194642857Y-25376130D01*
X194642857Y-24852321D02*
X194690476Y-24757083D01*
X194785714Y-24709464D01*
X194928571Y-24709464D01*
X195023809Y-24757083D01*
X195071428Y-24852321D01*
X195071428Y-25376130D01*
D11*
X23812500Y-26193750D02*
X357187500Y-26193750D01*
X23812500Y-31750000D02*
X23812500Y-25607329D01*
X357187500Y-31750000D02*
X357187500Y-25607329D01*
X357187500Y-26193750D02*
X356060996Y-26780171D01*
X357187500Y-26193750D02*
X356060996Y-25607329D01*
X23812500Y-26193750D02*
X24939004Y-26780171D01*
X23812500Y-26193750D02*
X24939004Y-25607329D01*
D10*
X15740119Y-75327380D02*
X15740119Y-75517857D01*
X15787738Y-75613095D01*
X15835357Y-75660714D01*
X15978214Y-75755952D01*
X16168690Y-75803571D01*
X16549642Y-75803571D01*
X16644880Y-75755952D01*
X16692500Y-75708333D01*
X16740119Y-75613095D01*
X16740119Y-75422619D01*
X16692500Y-75327380D01*
X16644880Y-75279761D01*
X16549642Y-75232142D01*
X16311547Y-75232142D01*
X16216309Y-75279761D01*
X16168690Y-75327380D01*
X16121071Y-75422619D01*
X16121071Y-75613095D01*
X16168690Y-75708333D01*
X16216309Y-75755952D01*
X16311547Y-75803571D01*
X16740119Y-76708333D02*
X16740119Y-76232142D01*
X16263928Y-76184523D01*
X16311547Y-76232142D01*
X16359166Y-76327380D01*
X16359166Y-76565476D01*
X16311547Y-76660714D01*
X16263928Y-76708333D01*
X16168690Y-76755952D01*
X15930595Y-76755952D01*
X15835357Y-76708333D01*
X15787738Y-76660714D01*
X15740119Y-76565476D01*
X15740119Y-76327380D01*
X15787738Y-76232142D01*
X15835357Y-76184523D01*
X15835357Y-77184523D02*
X15787738Y-77232142D01*
X15740119Y-77184523D01*
X15787738Y-77136904D01*
X15835357Y-77184523D01*
X15740119Y-77184523D01*
X16644880Y-77613095D02*
X16692500Y-77660714D01*
X16740119Y-77755952D01*
X16740119Y-77994047D01*
X16692500Y-78089285D01*
X16644880Y-78136904D01*
X16549642Y-78184523D01*
X16454404Y-78184523D01*
X16311547Y-78136904D01*
X15740119Y-77565476D01*
X15740119Y-78184523D01*
X16740119Y-79089285D02*
X16740119Y-78613095D01*
X16263928Y-78565476D01*
X16311547Y-78613095D01*
X16359166Y-78708333D01*
X16359166Y-78946428D01*
X16311547Y-79041666D01*
X16263928Y-79089285D01*
X16168690Y-79136904D01*
X15930595Y-79136904D01*
X15835357Y-79089285D01*
X15787738Y-79041666D01*
X15740119Y-78946428D01*
X15740119Y-78708333D01*
X15787738Y-78613095D01*
X15835357Y-78565476D01*
X16740119Y-79755952D02*
X16740119Y-79851190D01*
X16692500Y-79946428D01*
X16644880Y-79994047D01*
X16549642Y-80041666D01*
X16359166Y-80089285D01*
X16121071Y-80089285D01*
X15930595Y-80041666D01*
X15835357Y-79994047D01*
X15787738Y-79946428D01*
X15740119Y-79851190D01*
X15740119Y-79755952D01*
X15787738Y-79660714D01*
X15835357Y-79613095D01*
X15930595Y-79565476D01*
X16121071Y-79517857D01*
X16359166Y-79517857D01*
X16549642Y-79565476D01*
X16644880Y-79613095D01*
X16692500Y-79660714D01*
X16740119Y-79755952D01*
X15740119Y-81279761D02*
X16406785Y-81279761D01*
X16311547Y-81279761D02*
X16359166Y-81327380D01*
X16406785Y-81422619D01*
X16406785Y-81565476D01*
X16359166Y-81660714D01*
X16263928Y-81708333D01*
X15740119Y-81708333D01*
X16263928Y-81708333D02*
X16359166Y-81755952D01*
X16406785Y-81851190D01*
X16406785Y-81994047D01*
X16359166Y-82089285D01*
X16263928Y-82136904D01*
X15740119Y-82136904D01*
X15740119Y-82613095D02*
X16406785Y-82613095D01*
X16311547Y-82613095D02*
X16359166Y-82660714D01*
X16406785Y-82755952D01*
X16406785Y-82898809D01*
X16359166Y-82994047D01*
X16263928Y-83041666D01*
X15740119Y-83041666D01*
X16263928Y-83041666D02*
X16359166Y-83089285D01*
X16406785Y-83184523D01*
X16406785Y-83327380D01*
X16359166Y-83422619D01*
X16263928Y-83470238D01*
X15740119Y-83470238D01*
D11*
X17462500Y-31750000D02*
X17462500Y-127000000D01*
X23812500Y-31750000D02*
X16876079Y-31750000D01*
X23812500Y-127000000D02*
X16876079Y-127000000D01*
X17462500Y-127000000D02*
X16876079Y-125873496D01*
X17462500Y-127000000D02*
X18048921Y-125873496D01*
X17462500Y-31750000D02*
X16876079Y-32876504D01*
X17462500Y-31750000D02*
X18048921Y-32876504D01*
M02*
