M48
; DRILL file {KiCad (5.1.5)-3} date 29/04/2020 10:24:25 PM
; FORMAT={-:-/ absolute / inch / decimal}
; #@! TF.CreationDate,2020-04-29T22:24:25+10:00
; #@! TF.GenerationSoftware,Kicad,Pcbnew,(5.1.5)-3
; #@! TF.FileFunction,NonPlated,1,2,NPTH
FMAT,2
INCH
T1C0.0689
T2C0.1200
T3C0.1570
%
G90
G05
T1
X2.8Y-1.625
X3.2Y-1.625
X5.9875Y-3.875
X6.3875Y-3.875
X6.175Y-2.375
X6.575Y-2.375
X7.675Y-2.375
X8.075Y-2.375
X2.2375Y-2.375
X2.6375Y-2.375
X12.55Y-1.625
X12.95Y-1.625
X13.4875Y-4.625
X13.8875Y-4.625
X9.3625Y-3.125
X9.7625Y-3.125
X9.7375Y-3.875
X10.1375Y-3.875
X1.1125Y-4.625
X1.5125Y-4.625
X4.675Y-2.375
X5.075Y-2.375
X4.8625Y-3.125
X5.2625Y-3.125
X6.55Y-1.625
X6.95Y-1.625
X8.425Y-2.375
X8.825Y-2.375
X13.4875Y-3.875
X13.8875Y-3.875
X13.4875Y-1.625
X13.8875Y-1.625
X11.05Y-1.625
X11.45Y-1.625
X10.4875Y-4.625
X10.8875Y-4.625
X1.1125Y-2.375
X1.5125Y-2.375
X5.425Y-2.375
X5.825Y-2.375
X3.175Y-2.375
X3.575Y-2.375
X8.6125Y-3.125
X9.0125Y-3.125
X3.3625Y-3.125
X3.7625Y-3.125
X7.3Y-4.625
X7.7Y-4.625
X7.4875Y-3.875
X7.8875Y-3.875
X13.6875Y-4.05
X13.6875Y-4.45
X11.5187Y-3.875
X11.9187Y-3.875
X9.925Y-2.375
X10.325Y-2.375
X2.2375Y-4.625
X2.6375Y-4.625
X9.55Y-1.625
X9.95Y-1.625
X1.1125Y-3.875
X1.5125Y-3.875
X5.2375Y-3.875
X5.6375Y-3.875
X3.7375Y-3.875
X4.1375Y-3.875
X8.2375Y-3.875
X8.6375Y-3.875
X3.55Y-1.625
X3.95Y-1.625
X6.3625Y-3.125
X6.7625Y-3.125
X1.3125Y-4.05
X1.3125Y-4.45
X7.3Y-1.625
X7.7Y-1.625
X13.4875Y-2.375
X13.8875Y-2.375
X2.5187Y-3.875
X2.9187Y-3.875
X12.3625Y-4.625
X12.7625Y-4.625
X11.8Y-1.625
X12.2Y-1.625
X1.1125Y-1.625
X1.5125Y-1.625
X10.1125Y-3.125
X10.5125Y-3.125
X5.8Y-1.625
X6.2Y-1.625
X3.925Y-2.375
X4.325Y-2.375
X8.05Y-1.625
X8.45Y-1.625
X5.05Y-1.625
X5.45Y-1.625
X6.7375Y-3.875
X7.1375Y-3.875
X7.8625Y-3.125
X8.2625Y-3.125
X12.3625Y-2.375
X12.7625Y-2.375
X1.3125Y-2.55
X1.3125Y-2.95
X12.55Y-3.875
X12.95Y-3.875
X10.4875Y-3.875
X10.8875Y-3.875
X2.3312Y-3.125
X2.7312Y-3.125
X12.175Y-1.625
X12.575Y-1.625
X2.1437Y-3.125
X2.5437Y-3.125
X4.3Y-1.625
X4.7Y-1.625
X4.4875Y-3.875
X4.8875Y-3.875
X8.9875Y-3.875
X9.3875Y-3.875
X4.1125Y-4.625
X4.5125Y-4.625
X6.925Y-2.375
X7.325Y-2.375
X8.8Y-1.625
X9.2Y-1.625
X13.4875Y-3.125
X13.8875Y-3.125
X12.0812Y-3.125
X12.4812Y-3.125
X10.675Y-2.375
X11.075Y-2.375
X11.7062Y-3.875
X12.1062Y-3.875
X1.1125Y-3.125
X1.5125Y-3.125
X10.8625Y-3.125
X11.2625Y-3.125
X5.6125Y-3.125
X6.0125Y-3.125
X4.1125Y-3.125
X4.5125Y-3.125
X9.175Y-2.375
X9.575Y-2.375
X7.1125Y-3.125
X7.5125Y-3.125
X13.6875Y-2.55
X13.6875Y-2.95
X11.425Y-2.375
X11.825Y-2.375
X2.05Y-1.625
X2.45Y-1.625
X10.3Y-1.625
X10.7Y-1.625
T2
X13.9625Y-2.28
X13.9625Y-3.22
X5.25Y-4.9
X9.75Y-4.9
X13.9625Y-3.78
X13.9625Y-4.72
X1.0375Y-3.78
X1.0375Y-4.72
X2.25Y-3.6
X3.1875Y-3.6
X1.0375Y-2.28
X1.0375Y-3.22
X11.9062Y-1.35
X12.8438Y-1.35
X11.8112Y-3.4
X12.7512Y-3.4
X11.4375Y-3.6
X12.375Y-3.6
T3
X11.0625Y-3.125
X5.8125Y-3.125
X4.3125Y-3.125
X9.375Y-2.375
X7.3125Y-3.125
X13.3625Y-2.28
X13.3625Y-3.22
X13.6875Y-2.75
X11.625Y-2.375
X2.25Y-1.625
X10.5Y-1.625
X3.0Y-1.625
X6.1875Y-3.875
X6.375Y-2.375
X7.875Y-2.375
X2.4375Y-2.375
X12.75Y-1.625
X13.6875Y-4.625
X9.5625Y-3.125
X9.9375Y-3.875
X1.3125Y-4.625
X4.875Y-2.375
X5.0625Y-3.125
X6.75Y-1.625
X8.625Y-2.375
X13.6875Y-3.875
X13.6875Y-1.625
X11.25Y-1.625
X10.6875Y-4.625
X1.3125Y-2.375
X5.625Y-2.375
X3.375Y-2.375
X8.8125Y-3.125
X3.5625Y-3.125
X5.25Y-4.3
X7.5Y-4.625
X9.75Y-4.3
X7.6875Y-3.875
X13.3625Y-3.78
X13.3625Y-4.72
X13.6875Y-4.25
X11.7188Y-3.875
X10.125Y-2.375
X2.4375Y-4.625
X9.75Y-1.625
X1.3125Y-3.875
X5.4375Y-3.875
X3.9375Y-3.875
X8.4375Y-3.875
X3.75Y-1.625
X6.5625Y-3.125
X1.3125Y-4.25
X1.6375Y-3.78
X1.6375Y-4.72
X7.5Y-1.625
X13.6875Y-2.375
X2.25Y-4.2
X2.7188Y-3.875
X3.1875Y-4.2
X12.5625Y-4.625
X12.0Y-1.625
X1.3125Y-1.625
X10.3125Y-3.125
X6.0Y-1.625
X4.125Y-2.375
X8.25Y-1.625
X5.25Y-1.625
X6.9375Y-3.875
X8.0625Y-3.125
X12.5625Y-2.375
X1.3125Y-2.75
X1.6375Y-2.28
X1.6375Y-3.22
X12.75Y-3.875
X10.6875Y-3.875
X2.5312Y-3.125
X11.9062Y-1.95
X12.375Y-1.625
X12.8438Y-1.95
X2.3438Y-3.125
X4.5Y-1.625
X4.6875Y-3.875
X9.1875Y-3.875
X4.3125Y-4.625
X7.125Y-2.375
X9.0Y-1.625
X13.6875Y-3.125
X11.8112Y-2.8
X12.2812Y-3.125
X12.7512Y-2.8
X10.875Y-2.375
X11.4375Y-4.2
X11.9062Y-3.875
X12.375Y-4.2
X1.3125Y-3.125
T0
M30
