G04 #@! TF.GenerationSoftware,KiCad,Pcbnew,(5.1.5)-3*
G04 #@! TF.CreationDate,2020-06-19T00:16:12+10:00*
G04 #@! TF.ProjectId,rei_pcb,7265695f-7063-4622-9e6b-696361645f70,rev?*
G04 #@! TF.SameCoordinates,Original*
G04 #@! TF.FileFunction,Profile,NP*
%FSLAX46Y46*%
G04 Gerber Fmt 4.6, Leading zero omitted, Abs format (unit mm)*
G04 Created by KiCad (PCBNEW (5.1.5)-3) date 2020-06-19 00:16:12*
%MOMM*%
%LPD*%
G04 APERTURE LIST*
%ADD10C,0.050000*%
G04 APERTURE END LIST*
D10*
X47244000Y-35560000D02*
X48006000Y-35560000D01*
X145415000Y-35560000D02*
X145669000Y-35560000D01*
X140462000Y-35560000D02*
X140081000Y-35560000D01*
X235712000Y-35560000D02*
X235331000Y-35560000D01*
X240919000Y-35560000D02*
X240538000Y-35560000D01*
X333129985Y-35557572D02*
X333756000Y-35560000D01*
X332994000Y-123190000D02*
X333756000Y-123190000D01*
X240538000Y-123190000D02*
X240919000Y-123190000D01*
X235712000Y-123190000D02*
X235331000Y-123190000D01*
X145288000Y-123190000D02*
X145669000Y-123190000D01*
X140462000Y-123190000D02*
X140081000Y-123190000D01*
X47244000Y-123190000D02*
X48006000Y-123190000D01*
X235712000Y-123190000D02*
X240538000Y-123190000D01*
X140462000Y-123190000D02*
X145288000Y-123190000D01*
X140462000Y-35560000D02*
X145415000Y-35560000D01*
X240538000Y-35560000D02*
X235712000Y-35560000D01*
X244729000Y-31750000D02*
G75*
G02X240919000Y-35560000I-3810000J0D01*
G01*
X333129985Y-35557572D02*
G75*
G02X329184000Y-31750000I-135985J3807572D01*
G01*
X337566000Y-31750000D02*
G75*
G02X333756000Y-35560000I-3810000J0D01*
G01*
X235331000Y-35560000D02*
G75*
G02X231521000Y-31750000I0J3810000D01*
G01*
X140081000Y-35560000D02*
G75*
G02X136271000Y-31750000I0J3810000D01*
G01*
X149479000Y-31750000D02*
G75*
G02X145669000Y-35560000I-3810000J0D01*
G01*
X47244000Y-35560000D02*
G75*
G02X43434000Y-31750000I0J3810000D01*
G01*
X51816000Y-31750000D02*
G75*
G02X48006000Y-35560000I-3810000J0D01*
G01*
X48006000Y-123190000D02*
G75*
G02X51816000Y-127000000I0J-3810000D01*
G01*
X43434000Y-127000000D02*
G75*
G02X47244000Y-123190000I3810000J0D01*
G01*
X240919000Y-123190000D02*
G75*
G02X244729000Y-127000000I0J-3810000D01*
G01*
X231521000Y-127000000D02*
G75*
G02X235331000Y-123190000I3810000J0D01*
G01*
X145669000Y-123190000D02*
G75*
G02X149479000Y-127000000I0J-3810000D01*
G01*
X136271000Y-127000000D02*
G75*
G02X140081000Y-123190000I3810000J0D01*
G01*
X333756000Y-123190000D02*
G75*
G02X337566000Y-127000000I0J-3810000D01*
G01*
X329184000Y-127000000D02*
G75*
G02X332994000Y-123190000I3810000J0D01*
G01*
X23812500Y-34131250D02*
G75*
G02X26193750Y-31750000I2381250J0D01*
G01*
X43434000Y-127000000D02*
X26193750Y-127000000D01*
X51816000Y-127000000D02*
X136271000Y-127000000D01*
X231521000Y-127000000D02*
X149479000Y-127000000D01*
X329184000Y-127000000D02*
X244729000Y-127000000D01*
X354806250Y-127000000D02*
X337566000Y-127000000D01*
X337566000Y-31750000D02*
X354806250Y-31750000D01*
X244729000Y-31750000D02*
X329184000Y-31750000D01*
X149479000Y-31750000D02*
X231521000Y-31750000D01*
X51816000Y-31750000D02*
X136271000Y-31750000D01*
X26193750Y-31750000D02*
X43434000Y-31750000D01*
X23812500Y-124618750D02*
X23812500Y-34131250D01*
X357187500Y-34131250D02*
X357187500Y-124618750D01*
X354806250Y-31750000D02*
G75*
G02X357187500Y-34131250I0J-2381250D01*
G01*
X357187500Y-124618750D02*
G75*
G02X354806250Y-127000000I-2381250J0D01*
G01*
X26193750Y-127000000D02*
G75*
G02X23812500Y-124618750I0J2381250D01*
G01*
M02*
