M48
; DRILL file {KiCad (5.1.5)-3} date 19/06/2020 12:16:35 AM
; FORMAT={-:-/ absolute / inch / decimal}
; #@! TF.CreationDate,2020-06-19T00:16:35+10:00
; #@! TF.GenerationSoftware,Kicad,Pcbnew,(5.1.5)-3
; #@! TF.FileFunction,Plated,1,2,PTH
FMAT,2
INCH
T1C0.0157
T2C0.0579
%
G90
G05
T1
X1.55Y-3.0
X1.64Y-2.69
X1.67Y-3.59
X1.69Y-4.22
X1.71Y-3.58
X1.7214Y-3.1136
X1.7391Y-4.4409
X1.74Y-3.85
X1.7509Y-4.155
X1.7672Y-3.8228
X1.7727Y-3.8823
X1.7738Y-3.215
X1.7831Y-3.9981
X1.79Y-3.56
X1.8Y-3.25
X1.8729Y-3.7767
X1.9393Y-4.1507
X1.9509Y-3.6941
X2.0536Y-3.2164
X2.23Y-3.99
X2.415Y-4.44
X2.65Y-1.7228
X2.855Y-4.0
X2.9705Y-3.2962
X3.4125Y-3.3608
X4.16Y-3.3438
X4.91Y-3.32
X6.04Y-4.0517
X6.79Y-4.0687
X7.535Y-4.0857
X8.2995Y-4.1095
X9.0345Y-4.1305
X9.99Y-4.155
X10.5362Y-4.1788
X10.86Y-4.2026
X12.6Y-4.285
X13.14Y-4.195
T2
X9.6Y-1.525
X9.85Y-1.425
X11.7562Y-3.775
X12.0062Y-3.675
X8.2875Y-3.775
X8.5375Y-3.675
X13.5375Y-4.525
X13.7875Y-4.425
X1.1625Y-4.525
X1.4125Y-4.425
X6.0375Y-3.775
X6.2875Y-3.675
X5.6625Y-3.025
X5.9125Y-2.925
X10.9125Y-3.025
X11.1625Y-2.925
X12.6Y-1.525
X12.85Y-1.425
X9.225Y-2.275
X9.475Y-2.175
X13.5375Y-3.025
X13.7875Y-2.925
X11.475Y-2.275
X11.725Y-2.175
X12.225Y-1.525
X12.475Y-1.425
X4.1625Y-4.525
X4.4125Y-4.425
X1.1625Y-3.025
X1.4125Y-2.925
X2.1938Y-3.025
X2.4438Y-2.925
X4.35Y-1.525
X4.6Y-1.425
X1.1125Y-2.65
X1.2125Y-2.9
X2.1Y-1.525
X2.35Y-1.425
X4.9125Y-3.025
X5.1625Y-2.925
X6.7875Y-3.775
X7.0375Y-3.675
X2.2875Y-2.275
X2.5375Y-2.175
X9.7875Y-3.775
X10.0375Y-3.675
X9.4125Y-3.025
X9.6625Y-2.925
X12.4125Y-4.525
X12.6625Y-4.425
X11.85Y-1.525
X12.1Y-1.425
X13.5375Y-1.525
X13.7875Y-1.425
X3.7875Y-3.775
X4.0375Y-3.675
X1.1625Y-2.275
X1.4125Y-2.175
X13.7875Y-2.6
X13.8875Y-2.85
X4.725Y-2.275
X4.975Y-2.175
X2.85Y-1.525
X3.1Y-1.425
X2.5688Y-3.775
X2.8188Y-3.675
X6.225Y-2.275
X6.475Y-2.175
X6.6Y-1.525
X6.85Y-1.425
X12.4125Y-2.275
X12.6625Y-2.175
X10.35Y-1.525
X10.6Y-1.425
X7.1625Y-3.025
X7.4125Y-2.925
X6.4125Y-3.025
X6.6625Y-2.925
X7.35Y-4.525
X7.6Y-4.425
X1.1625Y-3.775
X1.4125Y-3.675
X1.1625Y-1.525
X1.4125Y-1.425
X13.7875Y-4.1
X13.8875Y-4.35
X3.975Y-2.275
X4.225Y-2.175
X3.225Y-2.275
X3.475Y-2.175
X5.2875Y-3.775
X5.5375Y-3.675
X7.9125Y-3.025
X8.1625Y-2.925
X8.6625Y-3.025
X8.9125Y-2.925
X11.1Y-1.525
X11.35Y-1.425
X10.1625Y-3.025
X10.4125Y-2.925
X13.5375Y-3.775
X13.7875Y-3.675
X10.5375Y-3.775
X10.7875Y-3.675
X4.5375Y-3.775
X4.7875Y-3.675
X12.1312Y-3.025
X12.3812Y-2.925
X3.4125Y-3.025
X3.6625Y-2.925
X5.1Y-1.525
X5.35Y-1.425
X6.975Y-2.275
X7.225Y-2.175
X9.975Y-2.275
X10.225Y-2.175
X12.6Y-3.775
X12.85Y-3.675
X7.725Y-2.275
X7.975Y-2.175
X9.0375Y-3.775
X9.2875Y-3.675
X13.5375Y-2.275
X13.7875Y-2.175
X2.3813Y-3.025
X2.6313Y-2.925
X1.1125Y-4.15
X1.2125Y-4.4
X2.2875Y-4.525
X2.5375Y-4.425
X3.6Y-1.525
X3.85Y-1.425
X7.5375Y-3.775
X7.7875Y-3.675
X7.35Y-1.525
X7.6Y-1.425
X10.5375Y-4.525
X10.7875Y-4.425
X8.1Y-1.525
X8.35Y-1.425
X11.5687Y-3.775
X11.8187Y-3.675
X5.85Y-1.525
X6.1Y-1.425
X4.1625Y-3.025
X4.4125Y-2.925
X5.475Y-2.275
X5.725Y-2.175
X8.85Y-1.525
X9.1Y-1.425
X10.725Y-2.275
X10.975Y-2.175
X8.475Y-2.275
X8.725Y-2.175
T0
M30
